<?xml version="1.0" encoding="utf-8"?>
<!-- Generator: Adobe Illustrator 21.1.0, SVG Export Plug-In . SVG Version: 6.00 Build 0)  -->
<svg version="1.1" id="Layer_1" xmlns="http://www.w3.org/2000/svg" xmlns:xlink="http://www.w3.org/1999/xlink" x="0px" y="0px"
	 viewBox="0 0 57.9 70" style="enable-background:new 0 0 57.9 70;" xml:space="preserve">
<style type="text/css">
	.st0{fill:#FFFFFF;}
	.st1{clip-path:url(#SVGID_2_);}
	.st2{clip-path:url(#SVGID_4_);fill:#A30000;}
</style>
<g>
	<path d="M28.9,61.5c-3.3,0-6.6-0.4-9.7-1.2l9.7,9.7l9.7-9.7C35.5,61.1,32.3,61.5,28.9,61.5z"/>
</g>
<circle class="st0" cx="28.9" cy="28.9" r="28.9"/>
<g>
	<defs>
		<path id="SVGID_1_" d="M40.6,35.2c0.5,0.5,0.5,1.2,0,1.6l-3.8,3.8c-0.5,0.5-1.2,0.5-1.6,0l-6.2-6.3l-6.2,6.3
			c-0.5,0.5-1.2,0.5-1.6,0l-3.8-3.8c-0.5-0.5-0.5-1.2,0-1.6l6.3-6.2l-6.3-6.2c-0.5-0.5-0.5-1.2,0-1.6l3.8-3.8c0.5-0.5,1.2-0.5,1.6,0
			l6.2,6.3l6.2-6.3c0.5-0.5,1.2-0.5,1.6,0l3.8,3.8c0.5,0.5,0.5,1.2,0,1.6l-6.3,6.2L40.6,35.2z M28.9,4.9c-13.3,0-24,10.7-24,24
			s10.7,24,24,24s24-10.7,24-24S42.2,4.9,28.9,4.9z"/>
	</defs>
	<clipPath id="SVGID_2_">
		<use xlink:href="#SVGID_1_"  style="overflow:visible;"/>
	</clipPath>
	<g class="st1">
		<defs>
			<rect id="SVGID_3_" x="-97.1" y="-181.1" width="1241" height="835"/>
		</defs>
		<clipPath id="SVGID_4_">
			<use xlink:href="#SVGID_3_"  style="overflow:visible;"/>
		</clipPath>
		<rect x="-0.1" y="-0.1" class="st2" width="58" height="58"/>
	</g>
</g>
</svg>
