<?xml version="1.0" encoding="utf-8"?>
<!-- Generator: Adobe Illustrator 21.1.0, SVG Export Plug-In . SVG Version: 6.00 Build 0)  -->
<svg version="1.1" id="Layer_1" xmlns="http://www.w3.org/2000/svg" xmlns:xlink="http://www.w3.org/1999/xlink" x="0px" y="0px"
	 viewBox="0 0 58.1 70" style="enable-background:new 0 0 58.1 70;" xml:space="preserve">
<style type="text/css">
	.st0{fill:#FFFFFF;}
	.st1{clip-path:url(#SVGID_2_);}
	.st2{clip-path:url(#SVGID_4_);fill:#92D400;}
</style>
<g>
	<g>
		<path d="M29,61.5c-3.3,0-6.6-0.4-9.7-1.2l9.7,9.7l9.7-9.7C35.7,61.1,32.4,61.5,29,61.5z"/>
	</g>
	<circle class="st0" cx="29" cy="28.9" r="28.9"/>
	<g>
		<g>
			<defs>
				<path id="SVGID_1_" d="M26.9,42.5l17.8-17.7c0.6-0.6,0.6-1.6,0-2.2l-2.2-2.2c-0.6-0.6-1.6-0.6-2.2,0L25.8,34.9l-6.8-6.8
					c-0.6-0.6-1.6-0.6-2.2,0l-2.2,2.2c-0.6,0.6-0.6,1.6,0,2.2l10.1,10C25.2,43.1,26.2,43.1,26.9,42.5z M53.1,28.9
					c0,13.3-10.7,24-24,24s-24-10.7-24-24s10.7-24,24-24S53.1,15.7,53.1,28.9z"/>
			</defs>
			<clipPath id="SVGID_2_">
				<use xlink:href="#SVGID_1_"  style="overflow:visible;"/>
			</clipPath>
			<g class="st1">
				<g>
					<defs>
						<rect id="SVGID_3_" x="-712.9" y="-164.1" width="1241" height="835"/>
					</defs>
					<clipPath id="SVGID_4_">
						<use xlink:href="#SVGID_3_"  style="overflow:visible;"/>
					</clipPath>
					<rect x="0" y="-0.1" class="st2" width="58" height="58"/>
				</g>
			</g>
		</g>
	</g>
</g>
</svg>
