<?xml version="1.0" encoding="utf-8"?>
<!-- Generator: Adobe Illustrator 19.2.1, SVG Export Plug-In . SVG Version: 6.00 Build 0)  -->
<svg version="1.1" id="Layer_1" xmlns="http://www.w3.org/2000/svg" xmlns:xlink="http://www.w3.org/1999/xlink" x="0px" y="0px"
	 viewBox="0 0 146 166" style="enable-background:new 0 0 146 166;" xml:space="preserve">
<style type="text/css">
	.st0{fill:#808080;}
	.st1{fill:#CC0000;}
</style>
<path class="st0" d="M128.1,4.4c7.6,0,13.7,6.2,13.7,13.7v129.7c0,7.6-6.2,13.7-13.7,13.7H18.3c-7.6,0-13.7-6.2-13.7-13.7V18.1
	c0-7.6,6.2-13.7,13.7-13.7L128.1,4.4 M128.1,0H18.3C8.3,0,0.2,8.1,0.2,18.1v129.7c0,10,8.1,18.1,18.1,18.1H128
	c10,0,18.1-8.1,18.1-18.1V18.1C146.2,8.1,138.1,0,128.1,0L128.1,0z"/>
<g>
	<path class="st1" d="M114.6,143.3H31c-7.2,0-13-4.8-13-10.6l0,0c0-5.9,5.9-10.6,13-10.6h83.6c7.2,0,13,4.8,13,10.6l0,0
		C127.7,138.5,121.8,143.3,114.6,143.3z"/>
	<path class="st1" d="M114.6,110.2H31c-7.2,0-13-4.8-13-10.6l0,0C18,93.7,23.9,89,31,89h83.6c7.2,0,13,4.8,13,10.6l0,0
		C127.7,105.4,121.8,110.2,114.6,110.2z"/>
	<path class="st1" d="M115,77.1H31.4c-7.2,0-13-4.8-13-10.6l0,0c0-5.9,5.9-10.6,13-10.6H115c7.2,0,13,4.8,13,10.6l0,0
		C128,72.3,122.1,77.1,115,77.1z"/>
	<path class="st1" d="M114.6,44H31c-7.2,0-13-4.8-13-10.6l0,0c0-5.9,5.9-10.7,13-10.7h83.6c7.2,0,13,4.8,13,10.6l0,0
		C127.7,39.2,121.8,44,114.6,44z"/>
</g>
</svg>
