<?xml version="1.0" encoding="utf-8"?>
<!-- Generator: Adobe Illustrator 19.2.1, SVG Export Plug-In . SVG Version: 6.00 Build 0)  -->
<svg version="1.1" id="Layer_1" xmlns="http://www.w3.org/2000/svg" xmlns:xlink="http://www.w3.org/1999/xlink" x="0px" y="0px"
	 viewBox="0 0 146 166" style="enable-background:new 0 0 146 166;" xml:space="preserve">
<style type="text/css">
	.st0{fill:#F39800;}
	.st1{fill:#CCCCCC;}
</style>
<g>
	<path class="st0" d="M114.6,166H31c-7.2,0-13-4.8-13-10.6l0,0c0-5.9,5.9-10.6,13-10.6h83.6c7.2,0,13,4.8,13,10.6l0,0
		C127.7,161.2,121.8,166,114.6,166z"/>
	<path class="st0" d="M114.6,132.9H31c-7.2,0-13-4.8-13-10.6l0,0c0-5.9,5.9-10.6,13-10.6h83.6c7.2,0,13,4.8,13,10.6l0,0
		C127.7,128.1,121.8,132.9,114.6,132.9z"/>
	<path class="st0" d="M115,99.8H31.4c-7.2,0-13-4.8-13-10.6l0,0c0-5.9,5.9-10.6,13-10.6H115c7.2,0,13,4.8,13,10.6l0,0
		C128,95,122.1,99.8,115,99.8z"/>
	<path class="st1" d="M99.6,62.9H46c-4.6,0-8.4-3.1-8.4-6.8l0,0c0-3.8,3.8-6.9,8.4-6.9h53.7c4.6,0,8.4,3.1,8.4,6.8l0,0
		C108.1,59.8,104.3,62.9,99.6,62.9z"/>
</g>
</svg>
