<?xml version="1.0" encoding="utf-8"?>
<!-- Generator: Adobe Illustrator 19.2.1, SVG Export Plug-In . SVG Version: 6.00 Build 0)  -->
<svg version="1.1" id="Layer_1" xmlns="http://www.w3.org/2000/svg" xmlns:xlink="http://www.w3.org/1999/xlink" x="0px" y="0px"
	 viewBox="0 0 130 154" style="enable-background:new 0 0 130 154;" xml:space="preserve">
<style type="text/css">
	.st0{fill:#94D400;}
	.st1{fill:#CCCCCC;}
</style>
<path class="st0" d="M106.6,142H23c-7.2,0-13-5.9-13-13l0,0c0-7.2,5.9-13,13-13h83.6c7.2,0,13,5.9,13,13l0,0
	C119.7,136.1,113.8,142,106.6,142z"/>
<rect x="21" y="51.7" class="st1" width="88.4" height="6"/>
<rect x="21" y="81.4" class="st1" width="88.4" height="6"/>
<rect x="21" y="22.1" class="st1" width="88.4" height="6"/>
<g>
	<path class="st0" d="M113,6.5c6,0,11,4.9,11,11V137c0,6-4.9,11-11,11H17.5c-6,0-11-4.9-11-11V17.5c0-6,4.9-11,11-11H113 M113,0.5
		H17.5c-9.4,0-17,7.6-17,17V137c0,9.4,7.6,17,17,17H113c9.4,0,17-7.6,17-17V17.5C130,8.1,122.4,0.5,113,0.5L113,0.5z"/>
</g>
</svg>
