<?xml version="1.0" encoding="utf-8"?>
<!-- Generator: Adobe Illustrator 19.2.1, SVG Export Plug-In . SVG Version: 6.00 Build 0)  -->
<svg version="1.1" id="Layer_1" xmlns="http://www.w3.org/2000/svg" xmlns:xlink="http://www.w3.org/1999/xlink" x="0px" y="0px"
	 viewBox="0 0 110 130" style="enable-background:new 0 0 110 130;" xml:space="preserve">
<style type="text/css">
	.st0{fill:#94D400;}
	.st1{display:none;fill:#E6E6E6;}
</style>
<path class="st0" d="M96.6,130H13c-7.2,0-13-5.9-13-13l0,0c0-7.2,5.9-13,13-13h83.6c7.2,0,13,5.9,13,13l0,0
	C109.7,124.1,103.8,130,96.6,130z"/>
<path class="st1" d="M96.6,95.4H13c-7.2,0-13-5.9-13-13l0,0c0-7.2,5.9-13,13-13h83.6c7.2,0,13,5.9,13,13l0,0
	C109.7,89.5,103.8,95.4,96.6,95.4z"/>
<path class="st1" d="M97,60.2H13.4c-7.2,0-13-5.9-13-13l0,0c0-7.2,5.9-13,13-13H97c7.2,0,13,5.9,13,13l0,0
	C110,54.4,104.1,60.2,97,60.2z"/>
<path class="st1" d="M96.6,26.1H13c-7.2,0-13-5.9-13-13l0,0C0,5.9,5.9,0,13,0h83.6c7.2,0,13,5.9,13,13l0,0
	C109.7,20.2,103.8,26.1,96.6,26.1z"/>
</svg>
