<?xml version="1.0" encoding="utf-8"?>
<!-- Generator: Adobe Illustrator 19.2.1, SVG Export Plug-In . SVG Version: 6.00 Build 0)  -->
<svg version="1.1" id="Layer_1" xmlns="http://www.w3.org/2000/svg" xmlns:xlink="http://www.w3.org/1999/xlink" x="0px" y="0px"
	 viewBox="0 0 146 166" style="enable-background:new 0 0 146 166;" xml:space="preserve">
<style type="text/css">
	.st0{fill:#808080;}
	.st1{fill:#DEC800;}
	.st2{fill:#CCCCCC;}
</style>
<g>
	<path class="st0" d="M128.1,4.4c7.6,0,13.7,6.2,13.7,13.7v129.7c0,7.6-6.2,13.7-13.7,13.7H18.3c-7.6,0-13.7-6.2-13.7-13.7V18.1
		c0-7.6,6.2-13.7,13.7-13.7L128.1,4.4 M128.1,0H18.3C8.3,0,0.2,8.1,0.2,18.1v129.7c0,10,8.1,18.1,18.1,18.1H128
		c10,0,18.1-8.1,18.1-18.1V18.1C146.2,8.1,138.1,0,128.1,0L128.1,0z"/>
</g>
<path class="st1" d="M114.6,143.3H31c-7.2,0-13-4.8-13-10.6l0,0c0-5.9,5.9-10.6,13-10.6h83.6c7.2,0,13,4.8,13,10.6l0,0
	C127.7,138.5,121.8,143.3,114.6,143.3z"/>
<path class="st1" d="M114.6,110.2H31c-7.2,0-13-4.8-13-10.6l0,0C18,93.7,23.9,89,31,89h83.6c7.2,0,13,4.8,13,10.6l0,0
	C127.7,105.4,121.8,110.2,114.6,110.2z"/>
<path class="st2" d="M99.6,40.2H46c-4.6,0-8.4-3.1-8.4-6.8l0,0c0-3.8,3.8-6.9,8.4-6.9h53.7c4.6,0,8.4,3.1,8.4,6.8l0,0
	C108.1,37.1,104.3,40.2,99.6,40.2z"/>
<path class="st2" d="M99.6,73.3H46c-4.6,0-8.4-3.1-8.4-6.8l0,0c0-3.8,3.8-6.9,8.4-6.9h53.7c4.6,0,8.4,3.1,8.4,6.8l0,0
	C108.1,70.2,104.3,73.3,99.6,73.3z"/>
</svg>
